<svg id="Layer_1" data-name="Layer 1" xmlns="http://www.w3.org/2000/svg" xmlns:xlink="http://www.w3.org/1999/xlink" viewBox="0 0 299.5 299.5"><defs><style>.cls-1,.cls-3{fill:none;}.cls-2{fill:#d1d1d1;opacity:0.4;isolation:isolate;}.cls-3{stroke:#d3d3d3;stroke-miterlimit:10;}.cls-4{clip-path:url(#clip-path);}.cls-5{fill:#2b2f33;}.cls-6{fill:url(#linear-gradient);}.cls-7{fill:url(#linear-gradient-2);}.cls-8{fill:#f9f9f9;}.cls-9{fill:#448e80;}</style><clipPath id="clip-path" transform="translate(-0.5 -0.5)"><path class="cls-1" d="M267.4,290H23.6A22.58,22.58,0,0,1,1,267.44s0,0,0,0V23.6A22.58,22.58,0,0,1,23.56,1H267.4A22.58,22.58,0,0,1,290,23.56V267.4A22.58,22.58,0,0,1,267.44,290h0Z"/></clipPath><linearGradient id="linear-gradient" x1="-488.79" y1="-255.47" x2="-488.79" y2="-255.47" gradientTransform="matrix(0, 1139.17, 1139.17, 0, 291223.91, 557102.85)" gradientUnits="userSpaceOnUse"><stop offset="0" stop-color="#9ab7a1"/><stop offset="1" stop-color="#9c9ba1"/></linearGradient><linearGradient id="linear-gradient-2" x1="-489" y1="-255.49" x2="-488.78" y2="-255.49" gradientTransform="matrix(0, 1139.17, 1139.17, 0, 291223.91, 557102.85)" gradientUnits="userSpaceOnUse"><stop offset="0" stop-color="#355441"/><stop offset="1" stop-color="#373841"/></linearGradient></defs><title>appGrid</title><path class="cls-2" d="M277.4,300H33.2a22.58,22.58,0,0,1-22.6-22.56s0,0,0,0V33.2A22.58,22.58,0,0,1,33.16,10.6H277.4A22.58,22.58,0,0,1,300,33.16V277.4A22.58,22.58,0,0,1,277.44,300h0Z" transform="translate(-0.5 -0.5)"/><path class="cls-3" d="M267.4,290H23.6A22.58,22.58,0,0,1,1,267.44s0,0,0,0V23.6A22.58,22.58,0,0,1,23.56,1H267.4A22.58,22.58,0,0,1,290,23.56V267.4A22.58,22.58,0,0,1,267.44,290h0Z" transform="translate(-0.5 -0.5)"/><path class="cls-1" d="M267.4,290H23.6A22.58,22.58,0,0,1,1,267.44s0,0,0,0V23.6A22.58,22.58,0,0,1,23.56,1H267.4A22.58,22.58,0,0,1,290,23.56V267.4A22.58,22.58,0,0,1,267.44,290h0Z" transform="translate(-0.5 -0.5)"/><rect class="cls-1" x="0.27" y="0.5" width="289" height="289" rx="22.6" ry="22.6"/><g class="cls-4"><rect class="cls-5" x="0.27" y="0.7" width="288.9" height="288.9"/><path class="cls-6" d="M268.92,289.77H134l0.08,0.05H267.42q0.76,0,1.5-.05" transform="translate(-0.5 -0.5)"/><path class="cls-7" d="M221.21,46.15H71.89A10.78,10.78,0,0,0,61.14,56.9V237a10.71,10.71,0,0,0,3.1,7.53h0a10.86,10.86,0,0,0,2.12,1.66L134,289.77H289.77V97.69L229.62,50.24a10.87,10.87,0,0,0-1.7-1.71l-6.71-2.37,6.68,2.36a10.68,10.68,0,0,0-6.68-2.36h0" transform="translate(-0.5 -0.5)"/></g><rect class="cls-8" x="57.36" y="42.5" width="170.82" height="201.62" rx="4.92" ry="4.92"/><rect class="cls-9" x="70.22" y="136.22" width="145.1" height="14.42"/><rect class="cls-9" x="70.22" y="60.02" width="66.93" height="52.52"/><rect class="cls-9" x="148.39" y="98.12" width="66.93" height="14.42"/><rect class="cls-9" x="148.39" y="60.02" width="66.93" height="14.42"/><rect class="cls-9" x="70.22" y="212.42" width="66.93" height="14.42"/><rect class="cls-9" x="148.58" y="212.42" width="66.93" height="14.42"/><rect class="cls-9" x="70.22" y="174.32" width="66.93" height="14.42"/><rect class="cls-9" x="148.39" y="174.32" width="66.93" height="14.42"/></svg>