<svg id="Layer_1" data-name="Layer 1" xmlns="http://www.w3.org/2000/svg" xmlns:xlink="http://www.w3.org/1999/xlink" viewBox="0 0 150 150.03"><defs><style>.cls-1{fill:#2b2f33;}.cls-2{fill:url(#linear-gradient);}.cls-3{fill:url(#linear-gradient-2);}.cls-4{fill:#f9f9f9;}.cls-5{fill:#448e80;}</style><linearGradient id="linear-gradient" x1="-563.84" y1="-330.49" x2="-563.84" y2="-330.49" gradientTransform="matrix(0, 1139.17, 1139.17, 0, 376586.79, 642465.73)" gradientUnits="userSpaceOnUse"><stop offset="0" stop-color="#9ab7a1"/><stop offset="1" stop-color="#9c9ba1"/></linearGradient><linearGradient id="linear-gradient-2" x1="-563.96" y1="-330.5" x2="-563.84" y2="-330.5" gradientTransform="matrix(0, 1139.17, 1139.17, 0, 376586.79, 642465.73)" gradientUnits="userSpaceOnUse"><stop offset="0" stop-color="#355441"/><stop offset="1" stop-color="#373841"/></linearGradient></defs><title>market</title><polyline class="cls-1" points="0 0 150 0 150 150 0 150 0 0"/><path class="cls-2" d="M139.21,150H69.35l0,0h69l0.78,0"/><path class="cls-3" d="M114.51,23.89H37.22a5.58,5.58,0,0,0-5.57,5.57V122.7a5.54,5.54,0,0,0,1.61,3.9h0a5.62,5.62,0,0,0,1.1.86l35,22.54H150V50.57L118.86,26a5.63,5.63,0,0,0-.88-0.89l-3.47-1.23L118,25.11a5.53,5.53,0,0,0-3.46-1.22h0"/><rect class="cls-4" x="29.95" y="22.26" width="88.43" height="104.37" rx="2.55" ry="2.55"/><rect class="cls-5" x="36.61" y="70.77" width="75.11" height="7.47"/><rect class="cls-5" x="36.61" y="31.33" width="34.65" height="27.19"/><rect class="cls-5" x="77.07" y="51.05" width="34.65" height="7.47"/><rect class="cls-5" x="77.07" y="31.33" width="34.65" height="7.47"/><rect class="cls-5" x="36.61" y="110.22" width="34.65" height="7.47"/><rect class="cls-5" x="77.17" y="110.22" width="34.65" height="7.47"/><rect class="cls-5" x="36.61" y="90.5" width="34.65" height="7.47"/><rect class="cls-5" x="77.07" y="90.5" width="34.65" height="7.47"/></svg>